<mxfile host="app.diagrams.net" agent="Mozilla/5.0 (Windows NT 10.0; Win64; x64) AppleWebKit/537.36 (KHTML, like Gecko) Chrome/127.0.0.0 Safari/537.36" version="24.7.6">
  <diagram name="Page-1" id="14pOcW5jqyHZ6tIzQq1Z">
    <mxGraphModel dx="1955" dy="586" grid="1" gridSize="10" guides="1" tooltips="1" connect="1" arrows="1" fold="1" page="1" pageScale="1" pageWidth="850" pageHeight="1100" math="0" shadow="0">
      <root>
        <mxCell id="0" />
        <mxCell id="1" parent="0" />
        <mxCell id="MD4ThZOy0BWXGlwwuOGN-77" style="edgeStyle=orthogonalEdgeStyle;rounded=0;orthogonalLoop=1;jettySize=auto;html=1;exitX=0.5;exitY=1;exitDx=0;exitDy=0;" parent="1" source="MD4ThZOy0BWXGlwwuOGN-1" edge="1">
          <mxGeometry relative="1" as="geometry">
            <mxPoint x="410" y="80" as="targetPoint" />
          </mxGeometry>
        </mxCell>
        <mxCell id="MD4ThZOy0BWXGlwwuOGN-1" value="&lt;font style=&quot;font-size: 20px;&quot;&gt;Mathematical Quizzing Website&lt;/font&gt;" style="rounded=0;whiteSpace=wrap;html=1;" parent="1" vertex="1">
          <mxGeometry x="132.5" width="587.5" height="50" as="geometry" />
        </mxCell>
        <mxCell id="MD4ThZOy0BWXGlwwuOGN-87" style="edgeStyle=orthogonalEdgeStyle;rounded=0;orthogonalLoop=1;jettySize=auto;html=1;exitX=0.25;exitY=1;exitDx=0;exitDy=0;" parent="1" source="MD4ThZOy0BWXGlwwuOGN-7" edge="1">
          <mxGeometry relative="1" as="geometry">
            <mxPoint x="-70" y="230" as="targetPoint" />
          </mxGeometry>
        </mxCell>
        <mxCell id="MD4ThZOy0BWXGlwwuOGN-88" style="edgeStyle=orthogonalEdgeStyle;rounded=0;orthogonalLoop=1;jettySize=auto;html=1;exitX=0.5;exitY=1;exitDx=0;exitDy=0;" parent="1" source="MD4ThZOy0BWXGlwwuOGN-7" edge="1">
          <mxGeometry relative="1" as="geometry">
            <mxPoint x="29.666666666666515" y="230" as="targetPoint" />
          </mxGeometry>
        </mxCell>
        <mxCell id="MD4ThZOy0BWXGlwwuOGN-89" style="edgeStyle=orthogonalEdgeStyle;rounded=0;orthogonalLoop=1;jettySize=auto;html=1;exitX=0.75;exitY=1;exitDx=0;exitDy=0;" parent="1" source="MD4ThZOy0BWXGlwwuOGN-7" edge="1">
          <mxGeometry relative="1" as="geometry">
            <mxPoint x="130" y="230" as="targetPoint" />
          </mxGeometry>
        </mxCell>
        <mxCell id="MD4ThZOy0BWXGlwwuOGN-7" value="&lt;font style=&quot;font-size: 14px;&quot;&gt;Handling and Saving User data&lt;/font&gt;" style="rounded=0;whiteSpace=wrap;html=1;fontSize=14;" parent="1" vertex="1">
          <mxGeometry x="-80" y="130" width="220" height="60" as="geometry" />
        </mxCell>
        <mxCell id="MD4ThZOy0BWXGlwwuOGN-94" style="edgeStyle=orthogonalEdgeStyle;rounded=0;orthogonalLoop=1;jettySize=auto;html=1;exitX=0.25;exitY=1;exitDx=0;exitDy=0;entryX=0.5;entryY=0;entryDx=0;entryDy=0;" parent="1" source="MD4ThZOy0BWXGlwwuOGN-10" target="MD4ThZOy0BWXGlwwuOGN-38" edge="1">
          <mxGeometry relative="1" as="geometry">
            <Array as="points">
              <mxPoint x="300" y="190" />
              <mxPoint x="300" y="210" />
              <mxPoint x="260" y="210" />
            </Array>
          </mxGeometry>
        </mxCell>
        <mxCell id="MD4ThZOy0BWXGlwwuOGN-95" style="edgeStyle=orthogonalEdgeStyle;rounded=0;orthogonalLoop=1;jettySize=auto;html=1;exitX=0.5;exitY=1;exitDx=0;exitDy=0;entryX=0.5;entryY=0;entryDx=0;entryDy=0;" parent="1" source="MD4ThZOy0BWXGlwwuOGN-10" target="MD4ThZOy0BWXGlwwuOGN-41" edge="1">
          <mxGeometry relative="1" as="geometry">
            <Array as="points">
              <mxPoint x="390" y="190" />
              <mxPoint x="390" y="210" />
              <mxPoint x="360" y="210" />
            </Array>
          </mxGeometry>
        </mxCell>
        <mxCell id="MD4ThZOy0BWXGlwwuOGN-96" style="edgeStyle=orthogonalEdgeStyle;rounded=0;orthogonalLoop=1;jettySize=auto;html=1;exitX=0.5;exitY=1;exitDx=0;exitDy=0;entryX=0.5;entryY=0;entryDx=0;entryDy=0;" parent="1" source="MD4ThZOy0BWXGlwwuOGN-10" target="MD4ThZOy0BWXGlwwuOGN-40" edge="1">
          <mxGeometry relative="1" as="geometry">
            <Array as="points">
              <mxPoint x="430" y="190" />
              <mxPoint x="430" y="210" />
              <mxPoint x="460" y="210" />
            </Array>
          </mxGeometry>
        </mxCell>
        <mxCell id="MD4ThZOy0BWXGlwwuOGN-97" style="edgeStyle=orthogonalEdgeStyle;rounded=0;orthogonalLoop=1;jettySize=auto;html=1;exitX=0.75;exitY=1;exitDx=0;exitDy=0;entryX=0.5;entryY=0;entryDx=0;entryDy=0;" parent="1" source="MD4ThZOy0BWXGlwwuOGN-10" target="MD4ThZOy0BWXGlwwuOGN-39" edge="1">
          <mxGeometry relative="1" as="geometry">
            <Array as="points">
              <mxPoint x="520" y="190" />
              <mxPoint x="520" y="210" />
              <mxPoint x="560" y="210" />
            </Array>
          </mxGeometry>
        </mxCell>
        <mxCell id="MD4ThZOy0BWXGlwwuOGN-10" value="&lt;font style=&quot;font-size: 14px;&quot;&gt;Home Page&lt;/font&gt;" style="rounded=0;whiteSpace=wrap;html=1;fontSize=14;" parent="1" vertex="1">
          <mxGeometry x="260" y="130" width="300" height="60" as="geometry" />
        </mxCell>
        <mxCell id="ruC7PBZjMoCTnjpyJLYt-1" style="edgeStyle=orthogonalEdgeStyle;rounded=0;orthogonalLoop=1;jettySize=auto;html=1;exitX=0.25;exitY=1;exitDx=0;exitDy=0;entryX=0.5;entryY=0;entryDx=0;entryDy=0;" edge="1" parent="1" source="MD4ThZOy0BWXGlwwuOGN-11" target="MD4ThZOy0BWXGlwwuOGN-51">
          <mxGeometry relative="1" as="geometry" />
        </mxCell>
        <mxCell id="ruC7PBZjMoCTnjpyJLYt-4" style="edgeStyle=orthogonalEdgeStyle;rounded=0;orthogonalLoop=1;jettySize=auto;html=1;exitX=0.75;exitY=1;exitDx=0;exitDy=0;entryX=0.5;entryY=0;entryDx=0;entryDy=0;" edge="1" parent="1" source="MD4ThZOy0BWXGlwwuOGN-11" target="MD4ThZOy0BWXGlwwuOGN-54">
          <mxGeometry relative="1" as="geometry" />
        </mxCell>
        <mxCell id="MD4ThZOy0BWXGlwwuOGN-11" value="&lt;font style=&quot;font-size: 14px;&quot;&gt;Leaderboards and Personal Records Page&lt;/font&gt;" style="rounded=0;whiteSpace=wrap;html=1;fontSize=14;" parent="1" vertex="1">
          <mxGeometry x="680" y="130" width="290" height="60" as="geometry" />
        </mxCell>
        <mxCell id="MD4ThZOy0BWXGlwwuOGN-13" value="" style="endArrow=none;html=1;rounded=0;" parent="1" edge="1">
          <mxGeometry width="50" height="50" relative="1" as="geometry">
            <mxPoint x="30" y="80" as="sourcePoint" />
            <mxPoint x="825" y="80" as="targetPoint" />
          </mxGeometry>
        </mxCell>
        <mxCell id="MD4ThZOy0BWXGlwwuOGN-106" style="edgeStyle=orthogonalEdgeStyle;rounded=0;orthogonalLoop=1;jettySize=auto;html=1;exitX=0.5;exitY=1;exitDx=0;exitDy=0;entryX=0.5;entryY=0;entryDx=0;entryDy=0;" parent="1" source="MD4ThZOy0BWXGlwwuOGN-21" target="MD4ThZOy0BWXGlwwuOGN-27" edge="1">
          <mxGeometry relative="1" as="geometry" />
        </mxCell>
        <mxCell id="MD4ThZOy0BWXGlwwuOGN-21" value="Register Page" style="rounded=0;whiteSpace=wrap;html=1;" parent="1" vertex="1">
          <mxGeometry x="-110" y="230" width="80" height="60" as="geometry" />
        </mxCell>
        <mxCell id="MD4ThZOy0BWXGlwwuOGN-107" style="edgeStyle=orthogonalEdgeStyle;rounded=0;orthogonalLoop=1;jettySize=auto;html=1;exitX=0.5;exitY=1;exitDx=0;exitDy=0;entryX=0.5;entryY=0;entryDx=0;entryDy=0;" parent="1" source="MD4ThZOy0BWXGlwwuOGN-22" target="MD4ThZOy0BWXGlwwuOGN-30" edge="1">
          <mxGeometry relative="1" as="geometry" />
        </mxCell>
        <mxCell id="MD4ThZOy0BWXGlwwuOGN-22" value="Login Page" style="rounded=0;whiteSpace=wrap;html=1;" parent="1" vertex="1">
          <mxGeometry x="-10" y="230" width="80" height="60" as="geometry" />
        </mxCell>
        <mxCell id="MD4ThZOy0BWXGlwwuOGN-108" style="edgeStyle=orthogonalEdgeStyle;rounded=0;orthogonalLoop=1;jettySize=auto;html=1;exitX=0.5;exitY=1;exitDx=0;exitDy=0;entryX=0.5;entryY=0;entryDx=0;entryDy=0;" parent="1" source="MD4ThZOy0BWXGlwwuOGN-23" target="MD4ThZOy0BWXGlwwuOGN-32" edge="1">
          <mxGeometry relative="1" as="geometry" />
        </mxCell>
        <mxCell id="MD4ThZOy0BWXGlwwuOGN-23" value="Forgot Page" style="rounded=0;whiteSpace=wrap;html=1;" parent="1" vertex="1">
          <mxGeometry x="90" y="230" width="80" height="60" as="geometry" />
        </mxCell>
        <mxCell id="MD4ThZOy0BWXGlwwuOGN-109" style="edgeStyle=orthogonalEdgeStyle;rounded=0;orthogonalLoop=1;jettySize=auto;html=1;exitX=0.5;exitY=1;exitDx=0;exitDy=0;entryX=0.5;entryY=0;entryDx=0;entryDy=0;" parent="1" source="MD4ThZOy0BWXGlwwuOGN-27" target="MD4ThZOy0BWXGlwwuOGN-53" edge="1">
          <mxGeometry relative="1" as="geometry" />
        </mxCell>
        <mxCell id="MD4ThZOy0BWXGlwwuOGN-27" value="Save details to the main csv file" style="rounded=0;whiteSpace=wrap;html=1;" parent="1" vertex="1">
          <mxGeometry x="-110" y="320" width="80" height="60" as="geometry" />
        </mxCell>
        <mxCell id="MD4ThZOy0BWXGlwwuOGN-30" value="Verify details by reading from the main csv file" style="rounded=0;whiteSpace=wrap;html=1;" parent="1" vertex="1">
          <mxGeometry x="-10" y="320" width="80" height="60" as="geometry" />
        </mxCell>
        <mxCell id="MD4ThZOy0BWXGlwwuOGN-32" value="Verify it&#39;s them by sending a PIN to their email&amp;nbsp;" style="rounded=0;whiteSpace=wrap;html=1;" parent="1" vertex="1">
          <mxGeometry x="90" y="320" width="80" height="60" as="geometry" />
        </mxCell>
        <mxCell id="MD4ThZOy0BWXGlwwuOGN-101" style="edgeStyle=orthogonalEdgeStyle;rounded=0;orthogonalLoop=1;jettySize=auto;html=1;exitX=0.5;exitY=1;exitDx=0;exitDy=0;" parent="1" source="MD4ThZOy0BWXGlwwuOGN-38" edge="1">
          <mxGeometry relative="1" as="geometry">
            <mxPoint x="300" y="330" as="targetPoint" />
          </mxGeometry>
        </mxCell>
        <mxCell id="MD4ThZOy0BWXGlwwuOGN-38" value="Easy difficulty" style="rounded=0;whiteSpace=wrap;html=1;" parent="1" vertex="1">
          <mxGeometry x="220" y="230" width="80" height="60" as="geometry" />
        </mxCell>
        <mxCell id="MD4ThZOy0BWXGlwwuOGN-105" style="edgeStyle=orthogonalEdgeStyle;rounded=0;orthogonalLoop=1;jettySize=auto;html=1;exitX=0.5;exitY=1;exitDx=0;exitDy=0;" parent="1" source="MD4ThZOy0BWXGlwwuOGN-39" edge="1">
          <mxGeometry relative="1" as="geometry">
            <mxPoint x="520" y="330" as="targetPoint" />
          </mxGeometry>
        </mxCell>
        <mxCell id="MD4ThZOy0BWXGlwwuOGN-39" value="Adaptive Difficulty" style="rounded=0;whiteSpace=wrap;html=1;" parent="1" vertex="1">
          <mxGeometry x="520" y="230" width="80" height="60" as="geometry" />
        </mxCell>
        <mxCell id="MD4ThZOy0BWXGlwwuOGN-104" style="edgeStyle=orthogonalEdgeStyle;rounded=0;orthogonalLoop=1;jettySize=auto;html=1;exitX=0.5;exitY=1;exitDx=0;exitDy=0;" parent="1" source="MD4ThZOy0BWXGlwwuOGN-40" edge="1">
          <mxGeometry relative="1" as="geometry">
            <mxPoint x="460.44444444444434" y="330" as="targetPoint" />
          </mxGeometry>
        </mxCell>
        <mxCell id="MD4ThZOy0BWXGlwwuOGN-40" value="Hard Difficulty" style="rounded=0;whiteSpace=wrap;html=1;" parent="1" vertex="1">
          <mxGeometry x="420" y="230" width="80" height="60" as="geometry" />
        </mxCell>
        <mxCell id="MD4ThZOy0BWXGlwwuOGN-102" style="edgeStyle=orthogonalEdgeStyle;rounded=0;orthogonalLoop=1;jettySize=auto;html=1;" parent="1" source="MD4ThZOy0BWXGlwwuOGN-41" edge="1">
          <mxGeometry relative="1" as="geometry">
            <mxPoint x="360" y="330" as="targetPoint" />
          </mxGeometry>
        </mxCell>
        <mxCell id="MD4ThZOy0BWXGlwwuOGN-41" value="Medium Difficulty" style="rounded=0;whiteSpace=wrap;html=1;" parent="1" vertex="1">
          <mxGeometry x="320" y="230" width="80" height="60" as="geometry" />
        </mxCell>
        <mxCell id="MD4ThZOy0BWXGlwwuOGN-112" style="edgeStyle=orthogonalEdgeStyle;rounded=0;orthogonalLoop=1;jettySize=auto;html=1;exitX=0.5;exitY=1;exitDx=0;exitDy=0;entryX=0;entryY=0.5;entryDx=0;entryDy=0;" parent="1" source="MD4ThZOy0BWXGlwwuOGN-42" target="MD4ThZOy0BWXGlwwuOGN-58" edge="1">
          <mxGeometry relative="1" as="geometry" />
        </mxCell>
        <mxCell id="MD4ThZOy0BWXGlwwuOGN-42" value="Generate a question based on difficulty" style="rounded=0;whiteSpace=wrap;html=1;" parent="1" vertex="1">
          <mxGeometry x="210" y="360" width="120" height="60" as="geometry" />
        </mxCell>
        <mxCell id="MD4ThZOy0BWXGlwwuOGN-114" style="edgeStyle=orthogonalEdgeStyle;rounded=0;orthogonalLoop=1;jettySize=auto;html=1;exitX=0.5;exitY=1;exitDx=0;exitDy=0;entryX=0.5;entryY=0;entryDx=0;entryDy=0;" parent="1" source="MD4ThZOy0BWXGlwwuOGN-48" target="MD4ThZOy0BWXGlwwuOGN-58" edge="1">
          <mxGeometry relative="1" as="geometry" />
        </mxCell>
        <mxCell id="MD4ThZOy0BWXGlwwuOGN-48" value="Get correct answer to the question generated" style="rounded=0;whiteSpace=wrap;html=1;" parent="1" vertex="1">
          <mxGeometry x="340" y="360" width="120" height="60" as="geometry" />
        </mxCell>
        <mxCell id="MD4ThZOy0BWXGlwwuOGN-49" value="Check if user answer is valid and correct" style="rounded=0;whiteSpace=wrap;html=1;" parent="1" vertex="1">
          <mxGeometry x="340" y="540" width="120" height="60" as="geometry" />
        </mxCell>
        <mxCell id="MD4ThZOy0BWXGlwwuOGN-123" style="edgeStyle=orthogonalEdgeStyle;rounded=0;orthogonalLoop=1;jettySize=auto;html=1;exitX=0.5;exitY=1;exitDx=0;exitDy=0;entryX=0;entryY=0.5;entryDx=0;entryDy=0;" parent="1" source="MD4ThZOy0BWXGlwwuOGN-51" target="MD4ThZOy0BWXGlwwuOGN-55" edge="1">
          <mxGeometry relative="1" as="geometry">
            <Array as="points">
              <mxPoint x="690" y="290" />
              <mxPoint x="690" y="350" />
            </Array>
          </mxGeometry>
        </mxCell>
        <mxCell id="MD4ThZOy0BWXGlwwuOGN-51" value="Display the top 3 scorers in each difficulty (excluding Adaptive)" style="rounded=0;whiteSpace=wrap;html=1;" parent="1" vertex="1">
          <mxGeometry x="630" y="230" width="110" height="60" as="geometry" />
        </mxCell>
        <mxCell id="MD4ThZOy0BWXGlwwuOGN-125" style="edgeStyle=orthogonalEdgeStyle;rounded=0;orthogonalLoop=1;jettySize=auto;html=1;exitX=0.75;exitY=1;exitDx=0;exitDy=0;entryX=1;entryY=0.5;entryDx=0;entryDy=0;" parent="1" source="MD4ThZOy0BWXGlwwuOGN-52" target="MD4ThZOy0BWXGlwwuOGN-55" edge="1">
          <mxGeometry relative="1" as="geometry">
            <Array as="points">
              <mxPoint x="850" y="290" />
              <mxPoint x="850" y="350" />
            </Array>
          </mxGeometry>
        </mxCell>
        <mxCell id="ruC7PBZjMoCTnjpyJLYt-3" style="edgeStyle=orthogonalEdgeStyle;rounded=0;orthogonalLoop=1;jettySize=auto;html=1;exitX=0.5;exitY=1;exitDx=0;exitDy=0;entryX=0.5;entryY=0;entryDx=0;entryDy=0;" edge="1" parent="1" source="MD4ThZOy0BWXGlwwuOGN-11" target="MD4ThZOy0BWXGlwwuOGN-52">
          <mxGeometry relative="1" as="geometry" />
        </mxCell>
        <mxCell id="MD4ThZOy0BWXGlwwuOGN-52" value="Display user&#39;s personal best in each difficulty (excluding Adaptive)" style="rounded=0;whiteSpace=wrap;html=1;" parent="1" vertex="1">
          <mxGeometry x="765" y="230" width="120" height="60" as="geometry" />
        </mxCell>
        <mxCell id="MD4ThZOy0BWXGlwwuOGN-53" value="Create another csv file under their username" style="rounded=0;whiteSpace=wrap;html=1;" parent="1" vertex="1">
          <mxGeometry x="-110" y="410" width="80" height="60" as="geometry" />
        </mxCell>
        <mxCell id="MD4ThZOy0BWXGlwwuOGN-119" style="edgeStyle=orthogonalEdgeStyle;rounded=0;orthogonalLoop=1;jettySize=auto;html=1;exitX=0.5;exitY=1;exitDx=0;exitDy=0;" parent="1" source="MD4ThZOy0BWXGlwwuOGN-54" edge="1">
          <mxGeometry relative="1" as="geometry">
            <mxPoint x="964.8888888888887" y="320" as="targetPoint" />
          </mxGeometry>
        </mxCell>
        <mxCell id="MD4ThZOy0BWXGlwwuOGN-54" value="Display a graph showing their previous 10 scores" style="rounded=0;whiteSpace=wrap;html=1;" parent="1" vertex="1">
          <mxGeometry x="910" y="230" width="110" height="60" as="geometry" />
        </mxCell>
        <mxCell id="MD4ThZOy0BWXGlwwuOGN-55" value="Read from the main csv file" style="rounded=0;whiteSpace=wrap;html=1;" parent="1" vertex="1">
          <mxGeometry x="720" y="320" width="100" height="60" as="geometry" />
        </mxCell>
        <mxCell id="MD4ThZOy0BWXGlwwuOGN-56" value="Read from the csv file under their username" style="rounded=0;whiteSpace=wrap;html=1;" parent="1" vertex="1">
          <mxGeometry x="910" y="320" width="110" height="60" as="geometry" />
        </mxCell>
        <mxCell id="MD4ThZOy0BWXGlwwuOGN-115" style="edgeStyle=orthogonalEdgeStyle;rounded=0;orthogonalLoop=1;jettySize=auto;html=1;exitX=0.5;exitY=1;exitDx=0;exitDy=0;entryX=1;entryY=0.5;entryDx=0;entryDy=0;" parent="1" source="MD4ThZOy0BWXGlwwuOGN-57" target="MD4ThZOy0BWXGlwwuOGN-58" edge="1">
          <mxGeometry relative="1" as="geometry" />
        </mxCell>
        <mxCell id="MD4ThZOy0BWXGlwwuOGN-57" value="Allocate appropiate lives based on difficulty" style="rounded=0;whiteSpace=wrap;html=1;" parent="1" vertex="1">
          <mxGeometry x="470" y="360" width="120" height="60" as="geometry" />
        </mxCell>
        <mxCell id="MD4ThZOy0BWXGlwwuOGN-117" style="edgeStyle=orthogonalEdgeStyle;rounded=0;orthogonalLoop=1;jettySize=auto;html=1;exitX=0.5;exitY=1;exitDx=0;exitDy=0;entryX=0.5;entryY=0;entryDx=0;entryDy=0;" parent="1" source="MD4ThZOy0BWXGlwwuOGN-58" target="MD4ThZOy0BWXGlwwuOGN-49" edge="1">
          <mxGeometry relative="1" as="geometry" />
        </mxCell>
        <mxCell id="MD4ThZOy0BWXGlwwuOGN-58" value="Check if they still have lives" style="rounded=0;whiteSpace=wrap;html=1;" parent="1" vertex="1">
          <mxGeometry x="340" y="450" width="120" height="60" as="geometry" />
        </mxCell>
        <mxCell id="MD4ThZOy0BWXGlwwuOGN-67" value="" style="endArrow=classic;html=1;rounded=0;entryX=0.5;entryY=0;entryDx=0;entryDy=0;" parent="1" target="MD4ThZOy0BWXGlwwuOGN-7" edge="1">
          <mxGeometry width="50" height="50" relative="1" as="geometry">
            <mxPoint x="30" y="80" as="sourcePoint" />
            <mxPoint x="490" y="240" as="targetPoint" />
          </mxGeometry>
        </mxCell>
        <mxCell id="MD4ThZOy0BWXGlwwuOGN-72" value="" style="endArrow=classic;html=1;rounded=0;entryX=0.5;entryY=0;entryDx=0;entryDy=0;" parent="1" target="MD4ThZOy0BWXGlwwuOGN-11" edge="1">
          <mxGeometry width="50" height="50" relative="1" as="geometry">
            <mxPoint x="825" y="80" as="sourcePoint" />
            <mxPoint x="490" y="240" as="targetPoint" />
          </mxGeometry>
        </mxCell>
        <mxCell id="MD4ThZOy0BWXGlwwuOGN-74" style="edgeStyle=orthogonalEdgeStyle;rounded=0;orthogonalLoop=1;jettySize=auto;html=1;entryX=0.5;entryY=0;entryDx=0;entryDy=0;" parent="1" target="MD4ThZOy0BWXGlwwuOGN-10" edge="1">
          <mxGeometry relative="1" as="geometry">
            <mxPoint x="410" y="80" as="sourcePoint" />
          </mxGeometry>
        </mxCell>
        <mxCell id="MD4ThZOy0BWXGlwwuOGN-92" value="" style="endArrow=none;html=1;rounded=0;" parent="1" edge="1">
          <mxGeometry width="50" height="50" relative="1" as="geometry">
            <mxPoint x="260" y="330" as="sourcePoint" />
            <mxPoint x="560" y="330" as="targetPoint" />
          </mxGeometry>
        </mxCell>
        <mxCell id="MD4ThZOy0BWXGlwwuOGN-98" value="" style="endArrow=classic;html=1;rounded=0;entryX=0.5;entryY=0;entryDx=0;entryDy=0;" parent="1" target="MD4ThZOy0BWXGlwwuOGN-48" edge="1">
          <mxGeometry width="50" height="50" relative="1" as="geometry">
            <mxPoint x="400" y="330" as="sourcePoint" />
            <mxPoint x="490" y="280" as="targetPoint" />
          </mxGeometry>
        </mxCell>
        <mxCell id="MD4ThZOy0BWXGlwwuOGN-100" value="" style="endArrow=classic;html=1;rounded=0;" parent="1" edge="1">
          <mxGeometry width="50" height="50" relative="1" as="geometry">
            <mxPoint x="260" y="330" as="sourcePoint" />
            <mxPoint x="260" y="360" as="targetPoint" />
          </mxGeometry>
        </mxCell>
        <mxCell id="MD4ThZOy0BWXGlwwuOGN-118" value="" style="endArrow=classic;html=1;rounded=0;entryX=0.75;entryY=0;entryDx=0;entryDy=0;" parent="1" target="MD4ThZOy0BWXGlwwuOGN-57" edge="1">
          <mxGeometry width="50" height="50" relative="1" as="geometry">
            <mxPoint x="560" y="330" as="sourcePoint" />
            <mxPoint x="490" y="300" as="targetPoint" />
          </mxGeometry>
        </mxCell>
      </root>
    </mxGraphModel>
  </diagram>
</mxfile>
